<svg xmlns="http://www.w3.org/2000/svg" width="256" height="256" viewBox="0 0 256 256">
<rect width="256" height="256" rx="52" fill="#171923"/>
<rect x="24" y="54" width="208" height="148" rx="24" fill="#2c3040" stroke="#8fa8ff" stroke-width="8"/>
<g fill="#555b70">
<rect x="43" y="77" width="30" height="26" rx="6"/><rect x="81" y="77" width="30" height="26" rx="6"/><rect x="119" y="77" width="30" height="26" rx="6"/><rect x="157" y="77" width="30" height="26" rx="6"/><rect x="195" y="77" width="18" height="26" rx="6"/>
<rect x="43" y="111" width="30" height="26" rx="6"/><rect x="81" y="111" width="30" height="26" rx="6"/><rect x="119" y="111" width="30" height="26" rx="6"/><rect x="157" y="111" width="30" height="26" rx="6"/><rect x="195" y="111" width="18" height="26" rx="6"/>
<rect x="43" y="145" width="30" height="26" rx="6"/><rect x="81" y="145" width="30" height="26" rx="6"/><rect x="119" y="145" width="94" height="26" rx="6"/>
</g>
<circle cx="206" cy="47" r="19" fill="#8fa8ff"/>
<path d="M198 47h16M206 39v16" stroke="#171923" stroke-width="6" stroke-linecap="round"/>
</svg>
